<svg width="18" height="16" viewBox="0 0 22 20" fill="none" xmlns="http://www.w3.org/2000/svg">
<g clip-path="url(#clip0_2_93)">
<path d="M6.56737 19.2834L5.78733 18.1219L4.50843 16.4638L3.04503 15.143L1.39139 13.9569L0.670197 13.5287L1.12185 11.0708L1.57351 8.52834L1.61751 8.43493L2.20757 8.74542L2.75364 9.05592L3.6019 10.0222L4.45016 10.9885L4.83522 11.6886L5.24126 12.3888L8.08107 9.02801L11.6119 5.25596L14.2053 2.95097L17.5555 0.335846L19.2185 2.68534L21.1012 5.38181L21.358 5.77719L19.5441 6.96641L17.7311 8.11733L15.8225 9.63159L11.0369 13.8443L9.73341 15.173L8.63775 16.5733L7.10019 18.6565L6.62886 19.3402L6.56737 19.2834Z" fill="white"/>
</g>
<defs>
<clipPath id="clip0_2_93">
<rect width="22" height="20" fill="white"/>
</clipPath>
</defs>
</svg>
