<svg width="21" height="19" viewBox="0 0 21 19" fill="none" xmlns="http://www.w3.org/2000/svg">
<g clip-path="url(#clip0_2_109)">
<g opacity="0.267" filter="url(#filter0_f_2_109)">
<path d="M7.08947 18.2711C7.08956 18.3381 7.0021 18.4045 6.8321 18.4664C6.66209 18.5283 6.41287 18.5846 6.09866 18.632C5.78446 18.6793 5.41142 18.7169 5.00086 18.7426C4.5903 18.7682 4.15025 18.7814 3.70585 18.7814C3.26145 18.7814 2.82141 18.7682 2.41084 18.7426C2.00028 18.7169 1.62725 18.6793 1.31304 18.632C0.998832 18.5846 0.749611 18.5283 0.579607 18.4664C0.409603 18.4045 0.322148 18.3381 0.322235 18.2711C0.322148 18.2041 0.409603 18.1377 0.579607 18.0758C0.749611 18.0139 0.998832 17.9576 1.31304 17.9102C1.62725 17.8629 2.00028 17.8253 2.41084 17.7996C2.82141 17.774 3.26145 17.7608 3.70585 17.7608C4.15025 17.7608 4.5903 17.774 5.00086 17.7996C5.41142 17.8253 5.78446 17.8629 6.09866 17.9102C6.41287 17.9576 6.66209 18.0139 6.8321 18.0758C7.0021 18.1377 7.08956 18.2041 7.08947 18.2711Z" fill="url(#paint0_radial_2_109)"/>
</g>
<g opacity="0.267" filter="url(#filter1_f_2_109)">
<path d="M20.6246 18.2711C20.6247 18.3381 20.5372 18.4045 20.3672 18.4664C20.1972 18.5283 19.948 18.5846 19.6338 18.632C19.3196 18.6793 18.9465 18.7169 18.536 18.7426C18.1254 18.7682 17.6854 18.7814 17.241 18.7814C16.7966 18.7814 16.3565 18.7682 15.946 18.7426C15.5354 18.7169 15.1624 18.6793 14.8482 18.632C14.534 18.5846 14.2847 18.5283 14.1147 18.4664C13.9447 18.4045 13.8573 18.3381 13.8574 18.2711C13.8573 18.2041 13.9447 18.1377 14.1147 18.0758C14.2847 18.0139 14.534 17.9576 14.8482 17.9102C15.1624 17.8629 15.5354 17.8253 15.946 17.7996C16.3565 17.774 16.7966 17.7608 17.241 17.7608C17.6854 17.7608 18.1254 17.774 18.536 17.7996C18.9465 17.8253 19.3196 17.8629 19.6338 17.9102C19.948 17.9576 20.1972 18.0139 20.3672 18.0758C20.5372 18.1377 20.6247 18.2041 20.6246 18.2711Z" fill="url(#paint1_radial_2_109)"/>
</g>
<path d="M1.1533 2.79285C0.630784 3.26561 0.630784 4.03256 1.1533 4.50532L6.57736 9.41279L1.1533 14.3203C0.630785 14.793 0.630784 15.56 1.1533 16.0327L3.23004 17.9117C3.75256 18.3844 4.59148 18.3765 5.114 17.9038L10.5381 12.9963L15.9709 17.9117C16.4934 18.3844 17.3323 18.3765 17.8548 17.9038L19.9228 16.0327C20.4453 15.56 20.4541 14.801 19.9316 14.3282L14.4988 9.41279L19.9228 4.50532C20.4453 4.03256 20.4541 3.27354 19.9316 2.80078L17.8548 0.921827C17.3323 0.449072 16.4846 0.449072 15.9621 0.921827L10.5381 5.8293L5.114 0.921827C4.59148 0.449072 3.7438 0.449072 3.22128 0.921827L1.1533 2.79285Z" fill="white"/>
<path d="M4.1682 0.983399C3.94497 0.983399 3.71649 1.0581 3.54271 1.21533L1.47655 3.08472C1.12944 3.39877 1.12944 3.89786 1.47655 4.21192L6.90087 9.11963C6.98593 9.19742 7.03365 9.30244 7.03365 9.41187C7.03365 9.5213 6.98593 9.62631 6.90087 9.7041L1.47655 14.6118C1.12944 14.9259 1.12944 15.425 1.47655 15.739L3.55297 17.6177C3.90114 17.9327 4.43827 17.93 4.78856 17.613L10.2129 12.7053C10.2989 12.6284 10.4149 12.5852 10.5359 12.5852C10.6568 12.5852 10.7729 12.6284 10.8589 12.7053L16.2934 17.6177C16.6406 17.9317 17.1849 17.929 17.5342 17.613L19.6003 15.739C19.9517 15.4211 19.9577 14.9352 19.6106 14.6211L14.176 9.70411C14.0909 9.62632 14.0432 9.52131 14.0432 9.41187C14.0432 9.30244 14.0909 9.19743 14.176 9.11964L19.6003 4.21192C19.9517 3.89403 19.9577 3.40805 19.6106 3.094L17.5342 1.21533C17.1881 0.902242 16.6292 0.902242 16.2832 1.21533L10.8589 6.12305C10.7729 6.20001 10.6568 6.24318 10.5359 6.24318C10.4149 6.24318 10.2989 6.20001 10.2129 6.12305L4.78856 1.21533C4.61266 1.05618 4.39143 0.983399 4.1682 0.983399Z" fill="url(#paint2_linear_2_109)"/>
<path d="M16.9087 1.11792C16.7225 1.11792 16.535 1.1823 16.3909 1.31274L10.9665 6.22046C10.729 6.43313 10.3428 6.43313 10.1052 6.22046L4.68089 1.31274C4.53399 1.17983 4.3545 1.12256 4.1682 1.12256C3.98287 1.12256 3.79373 1.18304 3.65038 1.31274L1.58421 3.18213C1.29468 3.44409 1.29468 3.85254 1.58421 4.1145L7.00853 9.02222C7.24359 9.23717 7.24359 9.58656 7.00853 9.80151L1.58421 14.7092C1.29468 14.9712 1.29468 15.3796 1.58421 15.6416L3.66063 17.5203C3.95259 17.7844 4.38584 17.7826 4.68089 17.5156L10.1052 12.6079C10.3428 12.3952 10.729 12.3952 10.9665 12.6079L16.4011 17.5203C16.6911 17.7826 17.1334 17.7808 17.4265 17.5156L19.4927 15.6416C19.7893 15.3733 19.7933 14.9813 19.5029 14.7185L14.0683 9.80151C13.8333 9.58656 13.8333 9.23717 14.0683 9.02222L19.4927 4.1145C19.7893 3.84616 19.7933 3.45416 19.5029 3.19141L17.4265 1.31274C17.2823 1.1823 17.0948 1.11792 16.9087 1.11792Z" stroke="url(#paint3_radial_2_109)" stroke-width="2"/>
</g>
<defs>
<filter id="filter0_f_2_109" x="-0.330872" y="17.1077" width="8.07346" height="2.32687" filterUnits="userSpaceOnUse" color-interpolation-filters="sRGB">
<feFlood flood-opacity="0" result="BackgroundImageFix"/>
<feBlend mode="normal" in="SourceGraphic" in2="BackgroundImageFix" result="shape"/>
<feGaussianBlur stdDeviation="0.326553" result="effect1_foregroundBlur_2_109"/>
</filter>
<filter id="filter1_f_2_109" x="13.2043" y="17.1077" width="8.07346" height="2.32687" filterUnits="userSpaceOnUse" color-interpolation-filters="sRGB">
<feFlood flood-opacity="0" result="BackgroundImageFix"/>
<feBlend mode="normal" in="SourceGraphic" in2="BackgroundImageFix" result="shape"/>
<feGaussianBlur stdDeviation="0.326553" result="effect1_foregroundBlur_2_109"/>
</filter>
<radialGradient id="paint0_radial_2_109" cx="0" cy="0" r="1" gradientUnits="userSpaceOnUse" gradientTransform="translate(3.70593 18.2711) scale(3.38386 0.510264)">
<stop/>
<stop offset="1" stop-opacity="0"/>
</radialGradient>
<radialGradient id="paint1_radial_2_109" cx="0" cy="0" r="1" gradientUnits="userSpaceOnUse" gradientTransform="translate(17.2411 18.2711) scale(3.38386 0.510264)">
<stop/>
<stop offset="1" stop-opacity="0"/>
</radialGradient>
<linearGradient id="paint2_linear_2_109" x1="-1.32965e-05" y1="0.980579" x2="-1.32965e-05" y2="17.8526" gradientUnits="userSpaceOnUse">
<stop stop-color="white"/>
<stop offset="0.9997" stop-color="white"/>
<stop offset="0.9998" stop-color="#D51515"/>
<stop offset="0.9999" stop-color="#D51515"/>
<stop offset="1" stop-color="#D20303"/>
</linearGradient>
<radialGradient id="paint3_radial_2_109" cx="0" cy="0" r="1" gradientUnits="userSpaceOnUse" gradientTransform="translate(10.5427 -1.17669) scale(10.7907 12.0289)">
<stop stop-color="#EEEEEE"/>
<stop offset="1" stop-color="#EEEEEE" stop-opacity="0"/>
</radialGradient>
<clipPath id="clip0_2_109">
<rect width="21" height="19" fill="white"/>
</clipPath>
</defs>
</svg>
