<svg width="300" height="430" viewBox="0 0 474 537" fill="none" xmlns="http://www.w3.org/2000/svg">
<path d="M281.479 256.231V530.483" stroke="#2A272D" stroke-width="1.9882" stroke-miterlimit="10"/>
<path d="M445.65 256.231V530.483" stroke="#2A272D" stroke-width="1.9882" stroke-miterlimit="10"/>
<path d="M184.41 340.929C184.41 340.929 215.913 332.3 220.656 357.081C224.752 378.345 181.904 377.531 181.904 377.531L87.6912 378.215C87.6912 378.215 52.1998 383.165 34.6562 333.7C17.1127 284.236 0.215879 154.697 0.215879 154.697C0.215879 154.697 -2.3173 136.884 9.97129 134.279C24.4158 131.218 27.2454 168.927 27.2454 168.927C27.2454 168.927 49.0738 328.816 80.7654 336.631C85.6431 337.836 89.5237 342.297 94.5092 342.232L184.41 340.929Z" fill="#FFEEE3"/>
<path d="M268.139 211.781L297.891 209.306C300.316 209.111 302.634 210.446 304.008 212.823L320.635 243.205L306.487 244.019L298.511 229.203C298.511 229.203 275.523 236.139 267.035 229.203L268.139 211.781Z" fill="#F2C09E"/>
<path d="M148.299 113.341L188.048 202.598L270.646 205.789V238.614L183.413 243.238C171.879 243.856 160.938 237.181 154.47 225.621L114.775 139.489L148.299 113.341Z" fill="#A02C2C"/>
<path d="M270.646 205.757V238.581L261.429 239.07V205.399L270.646 205.757Z" fill="#F7E5DA"/>
<path d="M227.366 470.338L232.028 509.805L255.527 508.047L252.159 467.309L227.366 470.338Z" fill="#FCC9A7"/>
<path d="M226.773 505.8C227.285 503.944 229.118 503.195 230.438 504.335C233.025 506.549 237.58 509.187 244.128 508.177C250.946 507.135 253.345 502.739 254.18 499.645C254.611 498.017 256.066 497.138 257.387 497.757L299.75 517.816C302.337 519.021 304.385 521.431 305.49 524.492C306.514 527.357 304.816 530.581 302.202 530.646L230.465 531.916C227.636 531.981 225.372 529.148 225.48 525.729L225.992 508.991C225.992 508.698 226.046 508.438 226.126 508.177L226.773 505.8Z" fill="#1F252A"/>
<path d="M155.979 105.688L162.716 118.746C163.147 119.984 163.336 122.98 161.477 124.087L158.863 126.366L153.257 116.011L155.979 105.688Z" fill="#FFEEE3"/>
<path d="M143.421 119.495L141.292 118.258C134.286 114.122 131.375 103.897 134.798 95.4306L157.542 39.1604L182.793 54.0746L156.518 117.086C153.715 124.087 149.215 122.915 143.421 119.495Z" fill="#FCC9A7"/>
<path d="M201.63 65.1789C194.219 83.4797 175.921 91.0997 160.776 82.1446C145.631 73.1896 139.325 51.1113 146.736 32.7779C154.147 14.477 172.418 6.85706 187.59 15.8121C202.762 24.7672 209.041 46.878 201.63 65.1789Z" fill="#FCC9A7"/>
<path d="M164.764 101.585C157.569 97.3519 154.578 86.8338 158.108 78.1393L170.936 46.3895L201.873 64.6578L191.417 90.5461C186.566 102.464 174.628 107.447 164.764 101.585Z" fill="#FCC9A7"/>
<path d="M197.857 72.1149L199.528 86.3127C199.663 88.5596 197.696 90.025 195.971 89.0155L188.371 86.5081L197.857 72.1149Z" fill="#FCC9A7"/>
<path d="M171.07 65.016C171.07 65.016 181.769 65.8627 183.521 45.9011C183.521 45.9011 202.115 60.2291 209.688 54.5305C209.688 54.5305 212.005 -1.93519 173.388 0.0512065C134.77 2.0376 131.752 52.4138 131.752 52.4138L153.419 76.0551L171.07 65.016Z" fill="#552200"/>
<path d="M172.606 65.8301C170.585 70.8774 165.546 72.9615 161.369 70.4867C157.219 68.0118 155.467 61.955 157.515 56.9076C159.536 51.8602 164.576 49.7761 168.753 52.2509C172.903 54.7258 174.628 60.7827 172.606 65.8301Z" fill="#FCC9A7"/>
<path d="M149.026 58.3404L143.286 74.5246C143.286 74.5246 155.898 86.736 162.258 71.0077L153.096 67.8816L149.026 58.3404Z" fill="#552200"/>
<path d="M183.521 45.9011C183.521 45.9011 208.718 69.4121 218.662 49.711C226.585 33.9827 217.772 23.7902 205.053 26.3302C199.555 27.4374 196.833 22.9436 192.521 19.3941L183.521 45.9011Z" fill="#552200"/>
<path d="M160.884 134.247C160.884 134.247 160.318 119.886 156.545 114.904C152.772 109.921 132.669 96.1795 132.669 96.1795C132.669 96.1795 103.753 106.307 85.9935 146.23C72.1688 177.329 59.1526 256.035 59.1526 256.035L142.586 270.656C149.781 211.846 163.255 185.046 160.884 134.247Z" fill="#A02C2C"/>
<path d="M134.07 93.4117L130.593 95.3004C129.354 95.9842 129.084 98.0032 130.108 99.1103L152.152 122.817C153.042 123.794 154.443 123.501 155.063 122.263L157.542 117.086C158 116.109 157.812 114.871 157.084 114.155L136.01 93.7699C135.471 93.1837 134.717 93.0535 134.07 93.4117Z" fill="#FFEEE3"/>
<path d="M258.95 217.122L288.701 214.647C291.127 214.451 293.444 215.786 294.818 218.164L310.071 244.378L295.816 246.592L289.321 234.511C289.321 234.511 266.334 241.447 257.845 234.511L258.95 217.122Z" fill="#FCC9A7"/>
<path d="M131.402 119.984L176.298 211.521L261.456 214.354V243.954L169.561 248.806C160.938 249.262 152.718 244.28 147.868 235.618L97.8778 146.133L131.402 119.984Z" fill="#A02C2C"/>
<path d="M261.456 214.354V243.922L252.24 244.41V214.354H261.456Z" fill="#FFEEE3"/>
<path d="M59.1526 256.035L223.27 284.789C235.828 287.004 245.529 299.28 246.742 314.553L258.977 483.461L222.327 486.327L204.702 339.92L101.651 343.144C73.6779 343.144 52.2268 313.12 56.296 279.677L59.1526 256.035Z" fill="#54585A"/>
<path d="M350.036 243.238H263.477V250.011H350.036V243.238Z" fill="#2A272D"/>
<path d="M350.063 250.011L378.063 151.18L372.188 149.487L344.727 244.41L350.063 250.011Z" fill="#2A272D"/>
<path d="M163.39 100.673C163.39 100.673 155.602 95.1049 155.602 83.382C155.602 83.382 150.751 96.0819 160.641 107.251L163.39 100.673Z" fill="#F2C09E"/>
<path d="M35.6263 536.866C36.9199 536.866 38.1056 535.791 38.4559 534.195L81.3043 330.053C84.8615 313.152 97.3926 301.332 111.837 301.332C125.85 301.332 138.301 312.696 142.127 328.978C157.111 392.771 191.982 531.949 192.333 533.349C192.791 535.205 194.435 536.28 195.971 535.693C197.507 535.14 198.396 533.153 197.911 531.297C197.561 529.897 162.689 390.784 147.733 327.057C143.205 307.747 128.437 294.265 111.81 294.265C94.6978 294.265 79.8221 308.268 75.6181 328.294L32.7698 532.47C32.3655 534.358 33.3088 536.28 34.8718 536.768C35.1413 536.833 35.3838 536.866 35.6263 536.866Z" fill="#1F252A"/>
<path d="M147.894 235.585L122.158 189.573" stroke="#EFC375" stroke-width="0.7847" stroke-miterlimit="10" stroke-linecap="round" stroke-linejoin="round"/>
<path d="M474 250.011H249.76V262.223H474V250.011Z" fill="#FFEEE3"/>
<path d="M281.479 291.888H445.65" stroke="#2A272D" stroke-width="1.9882" stroke-miterlimit="10"/>
<path d="M162.986 182.115L138.328 134.084" stroke="#EFC375" stroke-width="0.7847" stroke-miterlimit="10" stroke-linecap="round" stroke-linejoin="round"/>
</svg>
